<svg width="120" height="120" viewBox="0 0 120 120" fill="none" xmlns="http://www.w3.org/2000/svg">
    <g clip-path="url(#clip0_1_2)">
        <path fill-rule="evenodd" clip-rule="evenodd" d="M20 32V34H14C6.26801 34 0 40.268 0 48V102C0 109.732 6.26801 116 14 116H40C40 118.209 41.7909 120 44 120H76C78.2091 120 80 118.209 80 116H106C113.732 116 120 109.732 120 102V48C120 40.268 113.732 34 106 34H100V32C100 29.7909 98.2091 28 96 28H24C21.7909 28 20 29.7909 20 32ZM60 105C76.5685 105 90 91.5685 90 75C90 58.4315 76.5685 45 60 45C43.4315 45 30 58.4315 30 75C30 91.5685 43.4315 105 60 105ZM60 99C73.2548 99 84 88.2548 84 75C84 61.7452 73.2548 51 60 51C46.7452 51 36 61.7452 36 75C36 88.2548 46.7452 99 60 99Z" fill="white"/>
        <path d="M87.0438 3.12491C87.3324 2.18173 88.6676 2.18173 88.9562 3.12492L94.1273 20.0236C94.2809 20.5257 94.7966 20.8234 95.3082 20.7054L112.528 16.7343C113.49 16.5127 114.157 17.669 113.485 18.3906L101.435 31.3182C101.078 31.7022 101.078 32.2978 101.435 32.6818L113.485 45.6094C114.157 46.331 113.49 47.4873 112.528 47.2657L95.3082 43.2946C94.7966 43.1766 94.2809 43.4743 94.1273 43.9764L88.9562 60.8751C88.6676 61.8183 87.3324 61.8183 87.0438 60.8751L81.8727 43.9764C81.7191 43.4743 81.2034 43.1766 80.6918 43.2946L63.4716 47.2657C62.5104 47.4873 61.8428 46.331 62.5153 45.6094L74.5645 32.6818C74.9225 32.2977 74.9225 31.7022 74.5645 31.3182L62.5153 18.3906C61.8428 17.669 62.5104 16.5127 63.4716 16.7343L80.6918 20.7054C81.2034 20.8234 81.7191 20.5257 81.8727 20.0236L87.0438 3.12491Z" fill="#FFA500"/>
    </g>
    <defs>
        <clipPath id="clip0_1_2">
            <rect width="120" height="120" fill="white"/>
        </clipPath>
    </defs>
</svg>
